# File created by Blade
# Date/Time:  Mon Nov 15 14:44:42 2010
#---------------------------------------------------------
:version 1.10
:name HOM
:units
  mass 1.0
  length 1.000000
  angle deg
:documentation
     Acclaim Skeleton File
:root
   axis xyz
   order TX TY TZ RX RY RZ
   position 0.000000 0.000000 0.000000
   orientation 0 0 0
:bonedata
   begin
      id 1
      name LeftUpLeg_dum
      direction 1.000000 0.000000 0.000000
      length 4.719518
      axis 0.0 0.0 0.0 xyz
   end
   begin
      id 2
      name RightUpLeg_dum
      direction -1.000000 0.000000 0.000000
      length 4.719518
      axis 0.0 0.0 0.0 xyz
   end
   begin
      id 3
      name Spine_dum
      direction 0.000000 1.000000 0.000000
      length 0.039370
      axis 0.0 0.0 0.0 xyz
   end
   begin
      id 4
      name LeftUpLeg
      direction 0.000000 -1.000000 0.000000
      length 19.141694
      axis 0.0 0.0 0.0 xyz
      dof rx ry rz
   end
   begin
      id 5
      name LeftLeg
      direction 0.000000 -1.000000 0.000000
      length 19.555040
      axis 0.0 0.0 0.0 xyz
      dof rx ry rz
   end
   begin
      id 6
      name LeftFoot
      direction 0.000000 -0.258819 0.965926
      length 6.929396
      axis 15.0 0.0 0.0 xyz
      dof rx ry rz
   end
   begin
      id 7
      name LeftToeBase
      direction 0.000000 0.000000 1.000000
      length 2.952750
      axis 0.0 0.0 0.0 xyz
      dof rx ry rz
   end
   begin
      id 8
      name RightUpLeg
      direction 0.000000 -1.000000 0.000000
      length 19.141694
      axis 0.0 0.0 0.0 xyz
      dof rx ry rz
   end
   begin
      id 9
      name RightLeg
      direction 0.000000 -1.000000 0.000000
      length 19.555040
      axis 0.0 0.0 0.0 xyz
      dof rx ry rz
   end
   begin
      id 10
      name RightFoot
      direction 0.000000 -0.258819 0.965926
      length 6.929396
      axis 15.0 0.0 0.0 xyz
      dof rx ry rz
   end
   begin
      id 11
      name RightToeBase
      direction 0.000000 0.000000 1.000000
      length 2.952750
      axis 0.0 0.0 0.0 xyz
      dof rx ry rz
   end
   begin
      id 12
      name Spine
      direction 0.000000 1.000000 0.000000
      length 11.965764
      axis 0.0 0.0 0.0 xyz
      dof rx ry rz
   end
   begin
      id 13
      name Spine1
      direction 0.000000 1.000000 0.000000
      length 0.000000
      axis 0.0 0.0 0.0 xyz
      dof rx ry rz
   end
   begin
      id 14
      name Spine1_dum1
      direction 0.000000 1.000000 0.000000
      length 9.788721
      axis 0.0 0.0 0.0 xyz
   end
   begin
      id 15
      name Spine1_dum2
      direction 0.000000 1.000000 0.000000
      length 9.788721
      axis 0.0 0.0 0.0 xyz
   end
   begin
      id 16
      name Spine1_dum3
      direction 0.000000 1.000000 0.000000
      length 9.788721
      axis 0.0 0.0 0.0 xyz
   end
   begin
      id 17
      name Neck
      direction 0.000000 1.000000 0.000000
      length 7.029632
      axis 0.0 0.0 0.0 xyz
      dof rx ry rz
   end
   begin
      id 18
      name Head
      direction 0.000000 1.000000 0.000000
      length 4.527550
      axis 0.0 0.0 0.0 xyz
      dof rx ry rz
   end
   begin
      id 19
      name LeftShoulder
      direction 1.000000 -0.000004 0.000000
      length 9.320257
      axis 0.0 0.0 -90.0 xyz
      dof rx ry rz
   end
   begin
      id 20
      name LeftArm
      direction 1.000000 -0.000004 0.000000
      length 12.801352
      axis 0.0 0.0 -90.0 xyz
      dof rx ry rz
   end
   begin
      id 21
      name LeftForeArm
      direction 1.000000 -0.000004 0.000000
      length 11.278127
      axis 0.0 0.0 -90.0 xyz
      dof rx ry rz
   end
   begin
      id 22
      name LeftHand
      direction 0.000000 0.000000 0.000000
      length 0.000000
      axis 0.0 0.0 -90.0 xyz
      dof rx ry rz
   end
   begin
      id 23
      name LeftHand_dum1
      direction 0.000000 0.000000 0.000000
      length 0.000000
      axis 0.0 0.0 -90.0 xyz
   end
   begin
      id 24
      name LeftHand_dum2
      direction 1.000000 -0.000004 0.000000
      length 3.937000
      axis 0.0 0.0 -90.0 xyz
   end
   begin
      id 25
      name LeftHandThumb
      direction 0.000000 0.000000 1.000000
      length 3.937000
      axis 0.0 0.0 -90.0 xyz
      dof rx ry rz
   end
   begin
      id 26
      name RightShoulder
      direction -1.000000 -0.000004 0.000000
      length 9.320257
      axis 0.0 0.0 90.0 xyz
      dof rx ry rz
   end
   begin
      id 27
      name RightArm
      direction -1.000000 -0.000004 0.000000
      length 12.801352
      axis 0.0 0.0 90.0 xyz
      dof rx ry rz
   end
   begin
      id 28
      name RightForeArm
      direction -1.000000 -0.000004 0.000000
      length 11.278127
      axis 0.0 0.0 90.0 xyz
      dof rx ry rz
   end
   begin
      id 29
      name RightHand
      direction 0.000000 0.000000 0.000000
      length 0.000000
      axis 0.0 0.0 90.0 xyz
      dof rx ry rz
   end
   begin
      id 30
      name RightHand_dum1
      direction 0.000000 0.000000 0.000000
      length 0.000000
      axis 0.0 0.0 90.0 xyz
   end
   begin
      id 31
      name RightHand_dum2
      direction -1.000000 -0.000004 0.000000
      length 5.393690
      axis 0.0 0.0 90.0 xyz
   end
   begin
      id 32
      name RightHandThumb
      direction 0.000000 0.000000 1.000000
      length 3.937000
      axis 0.0 0.0 90.0 xyz
      dof rx ry rz
   end
:hierarchy
   begin
      root LeftUpLeg_dum RightUpLeg_dum Spine_dum
      LeftUpLeg_dum LeftUpLeg
      RightUpLeg_dum RightUpLeg
      Spine_dum Spine
      LeftUpLeg LeftLeg
      LeftLeg LeftFoot
      LeftFoot LeftToeBase
      RightUpLeg RightLeg
      RightLeg RightFoot
      RightFoot RightToeBase
      Spine Spine1
      Spine1 Spine1_dum1 Spine1_dum2 Spine1_dum3
      Spine1_dum1 Neck
      Spine1_dum2 LeftShoulder
      Spine1_dum3 RightShoulder
      Neck Head
      LeftShoulder LeftArm
      LeftArm LeftForeArm
      LeftForeArm LeftHand
      LeftHand LeftHand_dum1 LeftHand_dum2
      LeftHand_dum1 LeftHandThumb
      RightShoulder RightArm
      RightArm RightForeArm
      RightForeArm RightHand
      RightHand RightHand_dum1 RightHand_dum2
      RightHand_dum1 RightHandThumb
   end

# File created by Blade
# Date/Time:  Mon Nov 15 14:56:25 2010
# Frame Rate: 200.000 fps
#------------------------------------------------------
:FULLY-SPECIFIED
:DEGREES
704
root  1.892296 37.779529 89.083293 -22.824822 5.216402 -1.179129
LeftUpLeg  21.253002 3.454590 9.563509
LeftLeg  57.044329 -0.000000 -0.000000
LeftFoot  10.896018 5.814452 4.959498
LeftToeBase  -26.694731 0.000000 -0.000000
RightUpLeg  -10.061997 -11.724236 1.070910
RightLeg  22.875136 -0.000000 0.000000
RightFoot  12.900739 -8.019408 -14.827006
RightToeBase  -31.272988 0.000000 -0.000000
Spine  13.263907 -4.278183 0.855617
Spine1  4.196035 -1.884598 -0.773313
Neck  16.714181 -3.729556 -2.286577
Head  -20.641833 -6.786833 7.400190
LeftShoulder  -7.073866 9.286875 3.515297
LeftArm  31.384008 2.271462 -76.647611
LeftForeArm  46.111864 -0.000000 0.000000
LeftHand  -2.790491 6.201054 -2.605078
LeftHandThumb  0.000000 -0.000000 0.000000
RightShoulder  -13.382844 -17.858539 2.911483
RightArm  5.175316 -20.870819 78.995603
RightForeArm  13.261587 -0.000000 0.000000
RightHand  -4.737870 2.325266 12.829587
RightHandThumb  0.000000 -0.000000 0.000000
705
root  1.833953 37.801378 89.334664 -23.072483 5.044986 -1.570983
LeftUpLeg  20.579582 3.358719 9.854852
LeftLeg  58.614716 -0.000000 -0.000000
LeftFoot  10.102586 6.712111 4.965908
LeftToeBase  -25.228116 0.000000 -0.000000
RightUpLeg  -9.729727 -11.593189 1.527550
RightLeg  23.321850 -0.000000 0.000000
RightFoot  12.558137 -8.308885 -14.738176
RightToeBase  -30.737304 0.000000 -0.000000
Spine  13.366323 -4.302087 1.060188
Spine1  4.359755 -1.801073 -0.442016
Neck  16.624711 -3.702046 -2.315005
Head  -20.581683 -6.898223 7.245981
LeftShoulder  -6.989132 9.266108 3.565958
LeftArm  30.949560 2.309001 -77.247833
LeftForeArm  45.884491 -0.000000 0.000000
LeftHand  -2.788628 6.261207 -2.503057
LeftHandThumb  0.000000 -0.000000 0.000000
RightShoulder  -13.161191 -17.789791 2.672073
RightArm  5.463634 -20.928856 79.027669
RightForeArm  13.527572 -0.000000 0.000000
RightHand  -4.355653 2.110332 12.099736
RightHandThumb  0.000000 -0.000000 0.000000
706
root  1.773504 37.825823 89.579440 -23.256277 4.941546 -1.940336
LeftUpLeg  19.813698 3.279287 10.105309
LeftLeg  60.036774 -0.000000 -0.000000
LeftFoot  9.087382 7.597314 5.036964
LeftToeBase  -25.320964 0.000000 -0.000000
RightUpLeg  -9.366210 -11.294045 1.965388
RightLeg  23.557724 -0.000000 0.000000
RightFoot  12.330717 -8.784535 -14.600064
RightToeBase  -30.232649 0.000000 -0.000000
Spine  13.438699 -4.324053 1.218468
Spine1  4.491929 -1.733374 -0.114407
Neck  16.583867 -3.753532 -2.342739
Head  -20.579397 -6.972946 7.151173
LeftShoulder  -6.875237 9.249506 3.618590
LeftArm  30.540203 2.383429 -77.820322
LeftForeArm  45.575344 -0.000000 0.000000
LeftHand  -2.847713 6.253333 -2.452869
LeftHandThumb  0.000000 -0.000000 0.000000
RightShoulder  -12.953426 -17.686645 2.484203
RightArm  5.708174 -20.981070 79.029486
RightForeArm  13.859340 -0.000000 0.000000
RightHand  -4.464949 2.019343 11.874779
RightHandThumb  0.000000 -0.000000 0.000000
707
root  1.714434 37.854388 89.818600 -23.439369 4.836929 -2.309297
LeftUpLeg  19.047533 3.203205 10.356787
LeftLeg  61.458832 -0.000000 -0.000000
LeftFoot  8.071069 8.483628 5.092307
LeftToeBase  -25.413812 0.000000 -0.000000
RightUpLeg  -9.000747 -10.997637 2.404703
RightLeg  23.793598 -0.000000 0.000000
RightFoot  12.101835 -9.259638 -14.459859
RightToeBase  -29.727993 0.000000 -0.000000
Spine  13.511017 -4.346217 1.376725
Spine1  4.624484 -1.666432 0.213346
Neck  16.543047 -3.805037 -2.370438
Head  -20.576987 -7.047664 7.056346
LeftShoulder  -6.761364 9.232800 3.671187
LeftArm  30.130101 2.453765 -78.393360
LeftForeArm  45.266198 -0.000000 0.000000
LeftHand  -2.906805 6.245511 -2.402673
LeftHandThumb  0.000000 -0.000000 0.000000
RightShoulder  -12.746135 -17.582851 2.296835
RightArm  5.952798 -21.033291 79.031065
RightForeArm  14.191109 -0.000000 0.000000
RightHand  -4.573880 1.927925 11.650008
RightHandThumb  0.000000 -0.000000 0.000000
708
root  1.662205 37.889318 90.053426 -23.575292 4.847221 -2.603250
LeftUpLeg  18.222831 3.092763 10.465953
LeftLeg  62.639442 -0.000000 -0.000000
LeftFoot  7.307618 9.253499 5.470934
LeftToeBase  -24.916168 0.000000 -0.000000
RightUpLeg  -8.622370 -10.816147 2.732313
RightLeg  23.933858 -0.000000 0.000000
RightFoot  11.852263 -9.685663 -14.483737
RightToeBase  -29.483821 0.000000 -0.000000
Spine  13.529083 -4.396154 1.518894
Spine1  4.784735 -1.633723 0.391751
Neck  16.509168 -3.902058 -2.354958
Head  -20.590914 -7.092120 7.008979
LeftShoulder  -6.636566 9.196306 3.730186
LeftArm  29.752470 2.607069 -78.840055
LeftForeArm  44.857183 -0.000000 0.000000
LeftHand  -2.847500 6.004096 -2.265555
LeftHandThumb  0.000000 -0.000000 0.000000
RightShoulder  -12.538424 -17.461769 2.206341
RightArm  6.190770 -21.162251 78.985166
RightForeArm  14.574150 -0.000000 0.000000
RightHand  -4.415251 1.866487 11.408432
RightHandThumb  0.000000 -0.000000 0.000000
709
root  1.610652 37.928201 90.281370 -23.711267 4.856818 -2.897230
LeftUpLeg  17.398004 2.983901 10.576689
LeftLeg  63.820053 -0.000000 -0.000000
LeftFoot  6.547600 10.028276 5.839979
LeftToeBase  -24.418524 0.000000 -0.000000
RightUpLeg  -8.243169 -10.636788 3.060940
RightLeg  24.074119 -0.000000 0.000000
RightFoot  11.602547 -10.111786 -14.505762
RightToeBase  -29.239649 0.000000 -0.000000
Spine  13.547026 -4.446136 1.661058
Spine1  4.945085 -1.601513 0.570244
Neck  16.475260 -3.999071 -2.339420
Head  -20.604806 -7.136588 6.961618
LeftShoulder  -6.511819 9.159685 3.789099
LeftArm  29.373608 2.757424 -79.287806
LeftForeArm  44.448169 -0.000000 0.000000
LeftHand  -2.788803 5.762541 -2.128748
LeftHandThumb  0.000000 -0.000000 0.000000
RightShoulder  -12.331051 -17.340375 2.116367
RightArm  6.429061 -21.291033 78.938651
RightForeArm  14.957191 -0.000000 0.000000
RightHand  -4.256369 1.805718 11.166694
RightHandThumb  0.000000 -0.000000 0.000000
710
root  1.552583 37.968752 90.499453 -23.765876 4.901058 -3.171620
LeftUpLeg  16.456831 2.912413 10.683522
LeftLeg  64.852214 -0.000000 -0.000000
LeftFoot  6.005942 10.517469 6.210635
LeftToeBase  -24.224978 0.000000 -0.000000
RightUpLeg  -7.930313 -10.212840 3.408820
RightLeg  24.124991 -0.000000 0.000000
RightFoot  11.454057 -10.769850 -14.251259
RightToeBase  -29.111865 0.000000 -0.000000
Spine  13.539685 -4.450836 1.747755
Spine1  5.053367 -1.543364 0.805376
Neck  16.414020 -4.133443 -2.305759
Head  -20.565893 -7.244142 6.901868
LeftShoulder  -6.329367 9.158057 3.817281
LeftArm  29.080438 2.973050 -79.678945
LeftForeArm  43.927186 -0.000000 0.000000
LeftHand  -2.884711 5.919358 -2.192117
LeftHandThumb  0.000000 -0.000000 0.000000
RightShoulder  -12.241265 -17.190750 2.071209
RightArm  6.700575 -21.262820 78.900304
RightForeArm  15.289151 -0.000000 0.000000
RightHand  -4.126707 1.684078 10.891852
RightHandThumb  0.000000 -0.000000 0.000000
